<?xml version="1.0" encoding="UTF-8" standalone="no"?>
<svg
   class="icon"
   x="0px"
   y="0px"
   viewBox="0 0 28 28"
   enable-background="new 0 0 28 28"
   xml:space="preserve"
   version="1.1"
   id="svg3"
   sodipodi:docname="icon-orcid2.svg"
   inkscape:version="1.2 (dc2aedaf03, 2022-05-15)"
   xmlns:inkscape="http://www.inkscape.org/namespaces/inkscape"
   xmlns:sodipodi="http://sodipodi.sourceforge.net/DTD/sodipodi-0.dtd"
   xmlns="http://www.w3.org/2000/svg"
   xmlns:svg="http://www.w3.org/2000/svg"><defs
   id="defs7" /><sodipodi:namedview
   id="namedview5"
   pagecolor="#ffffff"
   bordercolor="#000000"
   borderopacity="0.25"
   inkscape:showpageshadow="2"
   inkscape:pageopacity="0.0"
   inkscape:pagecheckerboard="0"
   inkscape:deskcolor="#d1d1d1"
   showgrid="false"
   inkscape:zoom="21.566757"
   inkscape:cx="9.7372081"
   inkscape:cy="12.751106"
   inkscape:window-width="1920"
   inkscape:window-height="1009"
   inkscape:window-x="3832"
   inkscape:window-y="-8"
   inkscape:window-maximized="1"
   inkscape:current-layer="svg3" />
<path
   id="LinkedIn"
   fill="#d1cecc"
   d="M 28,14 C 28,21.73 21.73,28 14,28 6.27,28 0,21.73 0,14 0,6.27 6.27,0 14,0 21.73,0 28,6.27 28,14 Z"
   sodipodi:nodetypes="sssss" />
<g
   style="fill:#000000"
   id="g131"
   transform="matrix(0.02727054,0,0,0.02727054,0.06173267,0.06714274)"><g
     id="SVGRepo_bgCarrier"
     stroke-width="0" /><g
     id="SVGRepo_tracerCarrier"
     stroke-linecap="round"
     stroke-linejoin="round" /><g
     id="SVGRepo_iconCarrier"><circle
       cx="512"
       cy="512"
       r="512"
       style="fill:#d1cecc"
       id="circle115" /><path
       d="M 373.7,709.3 H 323.3 V 358.5 h 50.4 z m 74,-350.8 h 136.2 c 129.7,0 186.7,92.7 186.7,175.5 0,90.1 -70.4,175.5 -186,175.5 H 447.7 Z m 50.4,305.6 h 80.2 c 114.3,0 140.5,-86.8 140.5,-130 0,-70.4 -44.9,-130 -143.1,-130 H 498.1 Z M 381.6,285.5 c 0,18 -14.7,33.1 -33.1,33.1 -18.3,0 -33.1,-15.1 -33.1,-33.1 0,-18.3 14.7,-33.1 33.1,-33.1 18.3,0 33.1,15.1 33.1,33.1 z"
       style="fill:#ffffff"
       id="path117" /></g></g></svg>
