<?xml version="1.0" encoding="UTF-8" standalone="no"?>
<svg class="icon" x="0px" y="0px" viewBox="0 0 28 28" enable-background="new 0 0 28 28" xml:space="preserve" version="1.1" id="svg3" sodipodi:docname="icon-orcid.svg" inkscape:version="1.2 (dc2aedaf03, 2022-05-15)" xmlns:inkscape="http://www.inkscape.org/namespaces/inkscape" xmlns:sodipodi="http://sodipodi.sourceforge.net/DTD/sodipodi-0.dtd" xmlns="http://www.w3.org/2000/svg" xmlns:svg="http://www.w3.org/2000/svg">
  <defs id="defs7"/>
  <sodipodi:namedview id="namedview5" pagecolor="#ffffff" bordercolor="#000000" borderopacity="0.25" inkscape:showpageshadow="2" inkscape:pageopacity="0.0" inkscape:pagecheckerboard="0" inkscape:deskcolor="#d1d1d1" showgrid="false" inkscape:zoom="21.566757" inkscape:cx="9.7372081" inkscape:cy="12.751106" inkscape:window-width="1920" inkscape:window-height="1009" inkscape:window-x="3832" inkscape:window-y="-8" inkscape:window-maximized="1" inkscape:current-layer="svg3"/>
  <path id="OrcID" fill="#d1cecc" d="M 28,14 C 28,21.73 21.73,28 14,28 6.27,28 0,21.73 0,14 0,6.27 6.27,0 14,0 21.73,0 28,6.27 28,14 Z" sodipodi:nodetypes="sssss"/>
  <g style="fill:#000000" id="g131" transform="matrix(0.02727054,0,0,0.02727054,0.06173267,0.06714274)">
    <g id="SVGRepo_bgCarrier" stroke-width="0"/>
    <g id="SVGRepo_tracerCarrier" stroke-linecap="round" stroke-linejoin="round"/>
    <g id="SVGRepo_iconCarrier">
      <path d="M 330.8771,767.05906 H 267.72888 V 327.52738 h 63.14822 z m 92.71763,-439.53168 h 170.65055 c 162.50644,0 233.92408,116.14763 233.92408,219.89114 0,112.88997 -88.20705,219.89113 -233.04702,219.89113 H 423.59473 Z m 63.14822,382.89875 h 100.48586 c 143.21115,0 176.03821,-108.75527 176.03821,-162.88232 0,-88.20704 -56.25705,-162.88232 -179.29585,-162.88232 H 486.74295 Z M 340.77533,236.0627 c 0,22.55293 -18.41823,41.47234 -41.47234,41.47234 -22.92882,0 -41.47235,-18.91941 -41.47235,-41.47234 0,-22.92882 18.41824,-41.47235 41.47235,-41.47235 22.92882,0 41.47234,18.91941 41.47234,41.47235 z" style="fill:#ffffff;stroke-width:1.25294" id="path117"/>
    </g>
  </g>
</svg>
