<?xml version="1.0" encoding="UTF-8" standalone="no"?>
<svg
   class="icon"
   x="0px"
   y="0px"
   viewBox="0 0 28 28"
   enable-background="new 0 0 28 28"
   xml:space="preserve"
   version="1.1"
   id="svg3"
   sodipodi:docname="icon-keybase.svg"
   inkscape:version="1.2 (dc2aedaf03, 2022-05-15)"
   xmlns:inkscape="http://www.inkscape.org/namespaces/inkscape"
   xmlns:sodipodi="http://sodipodi.sourceforge.net/DTD/sodipodi-0.dtd"
   xmlns="http://www.w3.org/2000/svg"
   xmlns:svg="http://www.w3.org/2000/svg"><defs
   id="defs7"><style
     id="style285">
      .cls-1 {
        fill: #2c2c2b;
      }

      .cls-2 {
        fill: none;
      }
    </style></defs><sodipodi:namedview
   id="namedview5"
   pagecolor="#ffffff"
   bordercolor="#000000"
   borderopacity="0.25"
   inkscape:showpageshadow="2"
   inkscape:pageopacity="0.0"
   inkscape:pagecheckerboard="0"
   inkscape:deskcolor="#d1d1d1"
   showgrid="false"
   inkscape:zoom="15.25"
   inkscape:cx="12.065574"
   inkscape:cy="10.95082"
   inkscape:window-width="1920"
   inkscape:window-height="1009"
   inkscape:window-x="3832"
   inkscape:window-y="-8"
   inkscape:window-maximized="1"
   inkscape:current-layer="svg3" />
<path
   id="LinkedIn"
   fill="#d1cecc"
   d="M 28,14 C 28,21.73 21.73,28 14,28 6.27,28 0,21.73 0,14 0,6.27 6.27,0 14,0 21.73,0 28,6.27 28,14 Z"
   sodipodi:nodetypes="sssss" />
<g
   id="g305"
   transform="matrix(0.61905656,0,0,0.6089711,4.1211323,4.2652342)"><path
     id="_Path_"
     data-name="&lt;Path&gt;"
     class="cls-1"
     d="m 14.1233,26.9328 a 1.1122,1.1122 0 1 1 -1.1121,-1.1122 1.112,1.112 0 0 1 1.1121,1.1122"
     style="fill:#ffffff" /><path
     id="_Path_2"
     data-name="&lt;Path&gt;"
     class="cls-1"
     d="m 21.0257,26.9328 a 1.1122,1.1122 0 1 1 -1.1122,-1.1122 1.1121,1.1121 0 0 1 1.1122,1.1122"
     style="fill:#ffffff" /><rect
     class="cls-1"
     x="9.9988003"
     y="5.7972999"
     width="0.97409999"
     height="0.97430003"
     transform="rotate(-86.462,10.485806,6.2844989)"
     id="rect291"
     style="fill:#ffffff" /><path
     class="cls-1"
     d="m 26.4275,16.3825 -0.0013,0.001 A 13.0868,13.0868 0 0 0 21.2831,12.201 c -0.3754,-0.1667 -0.7543,-0.3142 -1.1354,-0.4454 0.0128,-0.0314 0.0277,-0.0615 0.04,-0.0933 A 4.83,4.83 0 0 0 17.2016,5.3433 5.9368,5.9368 0 0 0 15.2054,4.9875 C 15.1688,4.8622 15.0889,4.3132 15.7854,2.8304 L 14.3742,2 q -0.17,0.236 -0.3368,0.4661 c -0.384,0.5309 -0.7549,1.0444 -1.1029,1.55 A 2.1657,2.1657 0 0 0 11.4859,3.339 L 9.8543,3.2377 H 9.852 9.8495 C 9.8066,3.2352 9.7631,3.2338 9.7202,3.2338 A 2.1877,2.1877 0 0 0 7.54,5.2825 L 7.4388,6.9169 v 0.003 0.0028 A 2.1882,2.1882 0 0 0 9.4854,9.23 l 1.1673,0.0723 a 5.1711,5.1711 0 0 0 0.47,2.688 13.1954,13.1954 0 0 0 -4.2637,2.9 C 3,18.7883 3,23.06 3,26.4916 v 2.0706 L 4.524,26.9459 A 12.3293,12.3293 0 0 0 5.8548,30 H 7.8367 A 10.7091,10.7091 0 0 1 5.878,25.51 L 8.1133,23.1392 6.963,26.745 8.993,25.2676 c 3.5858,-2.61 7.8678,-3.2093 12.7263,-1.7826 a 4.6276,4.6276 0 0 0 5.2189,-1.468 c 0.0441,-0.0628 0.0828,-0.128 0.1228,-0.1926 a 9.6141,9.6141 0 0 1 0.1638,1.7454 12.4214,12.4214 0 0 1 -1.61,6.43 h 1.877 A 14.4022,14.4022 0 0 0 28.87,23.57 12.2666,12.2666 0 0 0 26.4275,16.3825 Z M 13.8455,5.9257 a 1.5872,1.5872 0 0 0 1.3983,0.7068 4.2111,4.2111 0 0 1 1.44,0.2719 3.17,3.17 0 0 1 1.0279,5.4638 l -0.4752,-0.5849 -0.0032,-0.004 a 1.7048,1.7048 0 0 0 -3.0235,0.9865 3.2143,3.2143 0 0 1 -1.899,-3.5412 8.4815,8.4815 0 0 1 1.4374,-3.466 1.642,1.642 0 0 0 0.0973,0.1671 z m 3.49,9.2589 -0.6072,0.4962 a 0.2675,0.2675 0 0 1 -0.376,-0.038 l -0.1264,-0.1549 a 0.2791,0.2791 0 0 1 0.0394,-0.3927 l 0.6,-0.49 -1.235,-1.5158 a 0.362,0.362 0 1 1 0.5611,-0.4575 l 3.4546,4.2517 a 0.3619,0.3619 0 0 1 -0.1988,0.5815 0.3566,0.3566 0 0 1 -0.0816,0.0094 0.3609,0.3609 0 0 1 -0.2806,-0.1332 l -0.3441,-0.4239 -1.2215,0.9971 a 0.2815,0.2815 0 0 1 -0.3965,-0.04 L 16.5697,17.197 a 0.2786,0.2786 0 0 1 0.04,-0.3919 l 1.2275,-1.002 z M 9.08,7.0184 9.1814,5.3842 A 0.5394,0.5394 0 0 1 9.72,4.8781 l 0.0326,0.001 1.6335,0.1013 A 0.5387,0.5387 0 0 1 11.8907,5.552 L 11.8834,5.6702 A 10.6739,10.6739 0 0 0 10.9806,7.6748 L 9.5859,7.5886 A 0.5407,0.5407 0 0 1 9.08,7.0184 Z M 25.5944,21.07 a 2.9883,2.9883 0 0 1 -3.4112,0.8373 c -4.5313,-1.3305 -8.6289,-1.0534 -12.2124,0.82 l 1.9069,-5.978 -7.203,7.6393 a 11.67,11.67 0 0 1 3.3532,-8.3419 11.4953,11.4953 0 0 1 4.1073,-2.6908 5.42,5.42 0 0 0 2.2411,1.2214 4.714,4.714 0 0 0 0.5627,0.12 1.6258,1.6258 0 0 0 0.2449,1.6416 l 0.0847,0.1038 a 1.6247,1.6247 0 0 0 0.2594,1.605 l 0.5532,0.6777 a 1.6276,1.6276 0 0 0 2.29,0.2314 l 0.3314,-0.2705 a 1.7079,1.7079 0 0 0 1.9867,-2.6535 l -1.9427,-2.3911 a 4.88,4.88 0 0 0 0.4863,-0.456 12.449,12.449 0 0 1 1.3829,0.5181 11.419,11.419 0 0 1 4.5085,3.6838 c 0.9744,1.3402 1.1502,2.7167 0.4701,3.6824 z"
     id="path293"
     style="fill:#ffffff" /><rect
     id="_Transparent_Rectangle"
     data-name=" Transparent Rectangle"
     class="cls-2"
     width="32"
     height="32"
     x="0"
     y="0" /></g></svg>
